<?xml version="1.0" standalone="no"?><!DOCTYPE svg PUBLIC "-//W3C//DTD SVG 1.1//EN" "http://www.w3.org/Graphics/SVG/1.1/DTD/svg11.dtd"><svg t="1722325149000" class="icon" viewBox="0 0 1024 1024" version="1.1" xmlns="http://www.w3.org/2000/svg" p-id="20447" width="256" height="256" xmlns:xlink="http://www.w3.org/1999/xlink"><path d="M981.32992 695.47008c-4.25984-21.34016-17.05984-42.67008-38.4-59.74016 8.54016-34.12992 12.8-72.52992 12.8-110.92992 0-46.93504-8.52992-98.13504-25.6-145.06496C938.67008 371.2 942.92992 358.4 947.2 345.6c4.27008-25.6 4.27008-46.93504-8.52992-68.26496-12.8-21.33504-34.14016-38.4-55.47008-42.66496-12.8-4.26496-25.6-4.26496-38.4 0-55.47008-64-132.27008-115.2-213.32992-136.53504C618.67008 42.66496 571.72992 0 512 0 452.26496 0 405.33504 42.66496 392.53504 98.13504 311.46496 119.46496 234.66496 170.66496 179.2 234.66496h-38.4c-25.6 8.53504-42.66496 21.33504-55.46496 42.66496s-17.06496 46.93504-12.8 72.53504c4.26496 12.8 8.53504 25.6 17.06496 34.13504-17.06496 46.93504-25.6 93.86496-25.6 145.07008 0 38.4 4.26496 72.52992 12.8 110.92992-17.06496 17.07008-29.86496 34.12992-38.4 59.72992-8.53504 29.87008-4.26496 64 12.8 93.87008 25.6 38.4 68.26496 59.72992 110.93504 59.72992 17.06496 0 34.13504-4.25984 38.4-8.52992 64 59.72992 140.8 102.4 226.13504 119.47008C439.46496 998.4 473.6 1024 512 1024s72.52992-25.6 85.32992-59.72992C682.67008 947.2 759.47008 904.52992 823.47008 844.8c12.8 4.27008 25.6 8.52992 38.4 8.52992s21.32992 0 34.12992-4.25984c29.87008-8.54016 59.72992-29.87008 76.8-55.47008 12.8-29.87008 17.07008-64 8.52992-98.12992zM836.27008 320c0-8.53504 8.52992-12.8 12.8-17.06496 4.25984-4.26496 8.52992-4.26496 12.8-4.26496H870.4c8.52992 0 12.8 8.53504 17.07008 12.8 4.25984 8.53504 4.25984 12.8 4.25984 21.33504s-8.52992 12.8-12.8 17.06496c-12.8 8.53504-29.85984 4.26496-38.4-8.53504-8.52992-8.53504-8.52992-17.07008-4.25984-21.33504zM512 85.33504c21.32992 0 38.4 17.06496 38.4 38.4s-17.07008 38.4-38.4 38.4a38.23616 38.23616 0 0 1-38.4-38.4c0-21.33504 17.06496-38.4 38.4-38.4zM136.53504 311.46496c4.26496-8.53504 12.8-12.8 17.06496-12.8h21.33504c8.53504 4.26496 12.8 8.53504 12.8 17.06496s0 17.06496-4.26496 21.33504c-4.27008 17.07008-21.33504 21.33504-34.13504 12.8-8.53504-4.26496-12.8-8.53504-12.8-17.06496-4.27008-8.53504-4.27008-17.06496 0-21.33504z m64 426.66496c-4.26496 8.54016-8.53504 17.07008-17.06496 21.34016-17.06496 8.52992-42.66496 4.25984-51.2-12.8C128 738.12992 123.73504 729.6 128 716.8s8.53504-17.07008 17.06496-21.32992C153.6 691.2 162.13504 686.92992 174.93504 691.2c8.53504 4.27008 17.06496 8.52992 21.33504 17.07008 4.26496 12.8 4.26496 21.32992 4.26496 29.85984zM512 960c-17.06496 0-29.86496-12.8-29.86496-29.87008 0-17.05984 12.8-29.85984 29.86496-29.85984 17.07008 0 29.87008 12.8 29.87008 29.85984 0 17.07008-12.8 29.87008-29.87008 29.87008z m243.2-294.4c-17.07008 29.87008-21.32992 59.72992-12.8 93.87008 4.27008 12.8 8.52992 21.32992 12.8 29.85984-46.92992 42.67008-106.67008 72.54016-166.4 85.34016-17.07008-25.6-46.92992-42.67008-76.8-42.67008-29.86496 0-59.73504 17.07008-76.8 42.67008-64-12.8-119.46496-42.67008-166.4-85.34016 4.26496-8.52992 12.8-21.32992 12.8-29.85984 8.53504-29.87008 4.26496-64-12.8-93.87008s-42.66496-46.92992-76.8-55.47008c-12.8-4.25984-21.33504-4.25984-34.13504-4.25984-4.26496-25.6-8.53504-51.2-8.53504-81.07008 0-38.4 4.26496-72.53504 17.06496-110.93504 29.86496 0 59.73504-17.06496 72.53504-46.93504 17.06496-17.06496 17.06496-42.66496 12.8-64 0-4.26496-4.26496-12.8-4.26496-17.06496 42.66496-46.93504 98.13504-81.06496 157.86496-102.4 21.33504 38.4 59.73504 64 106.66496 64 46.92992 0 85.32992-25.6 106.67008-64 59.72992 17.06496 115.2 55.46496 157.85984 102.4-12.8 25.6-12.8 59.73504 4.27008 85.33504s42.67008 42.66496 72.52992 46.93504c12.8 34.13504 17.07008 72.53504 17.07008 110.93504 0 25.6-4.27008 51.2-8.52992 81.05984-12.8 0-21.34016 0-34.14016 4.27008-29.85472 4.27008-55.45472 25.6-72.5248 51.2z m140.8 81.07008c-4.27008 8.52992-12.8 17.05984-21.32992 17.05984-8.54016 4.27008-21.34016 0-29.87008-4.25984-8.52992-4.27008-17.07008-12.8-17.07008-21.34016-4.25984-8.52992 0-21.32992 4.27008-29.85984 4.27008-8.54016 12.8-17.07008 21.32992-17.07008h8.54016c8.52992 0 12.8 0 17.05984 4.27008 8.54016 4.25984 17.07008 12.8 17.07008 21.32992 4.27008 12.8 4.27008 21.32992 0 29.87008zM524.8 550.4c-21.33504-81.06496-55.46496-162.13504-81.06496-200.53504L371.2 366.93504c59.73504 81.06496 106.66496 217.6 106.66496 294.4 0 34.14016 0 51.2-4.26496 72.54016h76.8c0-29.87008 0-72.54016-8.52992-106.67008 72.52992-110.92992 93.85984-179.2 106.65984-273.06496H576c0 72.5248-17.07008 136.5248-51.2 196.25984z" fill="#13227a" p-id="20448"></path></svg>